<svg xmlns="http://www.w3.org/2000/svg" viewBox="0 0 300 150" role="img" aria-label="Rotation Analytics">
  <title>Rotation Analytics</title>
  <!-- Mark: 80x80, centered horizontally -->
  <g fill="#1B2D4F" transform="translate(110 8) scale(1.667)">
    <path d="M24 6A18 18 0 0 1 41.7 27.1L29.4 26.5A6 6 0 0 0 25.6 18.2Z"/>
    <path d="M39.6 33A18 18 0 0 1 12.4 37.8L19.1 27.4A6 6 0 0 0 28.2 28.2Z"/>
    <path d="M8.4 33A18 18 0 0 1 17.8 7.1L23.5 18A6 6 0 0 0 18.2 25.6Z"/>
    <circle cx="24" cy="24" r="2.5"/>
  </g>
  <!-- Text centered below -->
  <text
    x="150"
    y="120"
    font-family="Inter, -apple-system, BlinkMacSystemFont, 'Segoe UI', system-ui, sans-serif"
    font-size="22"
    font-weight="600"
    fill="#1B2D4F"
    text-anchor="middle"
    letter-spacing="-0.3"
  >Rotation Analytics</text>
  <!-- Tagline -->
  <text
    x="150"
    y="140"
    font-family="Inter, -apple-system, BlinkMacSystemFont, 'Segoe UI', system-ui, sans-serif"
    font-size="8"
    font-weight="500"
    fill="#64748B"
    text-anchor="middle"
    letter-spacing="2.5"
    text-transform="uppercase"
  >INDEPENDENT ROTATION ASSURANCE</text>
</svg>
